<?xml version="1.0" encoding="us-ascii" standalone="no"?><svg xmlns="http://www.w3.org/2000/svg" xmlns:xlink="http://www.w3.org/1999/xlink" contentStyleType="text/css" height="869px" preserveAspectRatio="none" style="width:1432px;height:869px;background:#FFFFFF;" version="1.1" viewBox="0 0 1432 869" width="1432px" zoomAndPan="magnify"><defs/><g><line style="stroke:#181818;stroke-width:0.5;stroke-dasharray:5.0,5.0;" x1="39" x2="39" y1="36.4883" y2="834.4941"/><line style="stroke:#181818;stroke-width:0.5;stroke-dasharray:5.0,5.0;" x1="214.5" x2="214.5" y1="36.4883" y2="834.4941"/><line style="stroke:#181818;stroke-width:0.5;stroke-dasharray:5.0,5.0;" x1="382.5" x2="382.5" y1="36.4883" y2="834.4941"/><line style="stroke:#181818;stroke-width:0.5;stroke-dasharray:5.0,5.0;" x1="603.5" x2="603.5" y1="36.4883" y2="834.4941"/><line style="stroke:#181818;stroke-width:0.5;stroke-dasharray:5.0,5.0;" x1="865" x2="865" y1="36.4883" y2="834.4941"/><line style="stroke:#181818;stroke-width:0.5;stroke-dasharray:5.0,5.0;" x1="1069" x2="1069" y1="36.4883" y2="834.4941"/><line style="stroke:#181818;stroke-width:0.5;stroke-dasharray:5.0,5.0;" x1="1258.5" x2="1258.5" y1="36.4883" y2="834.4941"/><rect fill="#E2E2F0" height="30.4883" rx="2.5" ry="2.5" style="stroke:#181818;stroke-width:0.5;" width="68" x="5" y="5"/><text fill="#000000" font-family="sans-serif" font-size="14" lengthAdjust="spacing" textLength="54" x="12" y="25.5352">main.py</text><rect fill="#E2E2F0" height="30.4883" rx="2.5" ry="2.5" style="stroke:#181818;stroke-width:0.5;" width="68" x="5" y="833.4941"/><text fill="#000000" font-family="sans-serif" font-size="14" lengthAdjust="spacing" textLength="54" x="12" y="854.0293">main.py</text><rect fill="#E2E2F0" height="30.4883" rx="2.5" ry="2.5" style="stroke:#181818;stroke-width:0.5;" width="103" x="163.5" y="5"/><text fill="#000000" font-family="sans-serif" font-size="14" lengthAdjust="spacing" textLength="89" x="170.5" y="25.5352">SpecialAgent</text><rect fill="#E2E2F0" height="30.4883" rx="2.5" ry="2.5" style="stroke:#181818;stroke-width:0.5;" width="103" x="163.5" y="833.4941"/><text fill="#000000" font-family="sans-serif" font-size="14" lengthAdjust="spacing" textLength="89" x="170.5" y="854.0293">SpecialAgent</text><rect fill="#E2E2F0" height="30.4883" rx="2.5" ry="2.5" style="stroke:#181818;stroke-width:0.5;" width="55" x="355.5" y="5"/><text fill="#000000" font-family="sans-serif" font-size="14" lengthAdjust="spacing" textLength="41" x="362.5" y="25.5352">Agent</text><rect fill="#E2E2F0" height="30.4883" rx="2.5" ry="2.5" style="stroke:#181818;stroke-width:0.5;" width="55" x="355.5" y="833.4941"/><text fill="#000000" font-family="sans-serif" font-size="14" lengthAdjust="spacing" textLength="41" x="362.5" y="854.0293">Agent</text><rect fill="#E2E2F0" height="30.4883" rx="2.5" ry="2.5" style="stroke:#181818;stroke-width:0.5;" width="105" x="551.5" y="5"/><text fill="#000000" font-family="sans-serif" font-size="14" lengthAdjust="spacing" textLength="91" x="558.5" y="25.5352">StateMachine</text><rect fill="#E2E2F0" height="30.4883" rx="2.5" ry="2.5" style="stroke:#181818;stroke-width:0.5;" width="105" x="551.5" y="833.4941"/><text fill="#000000" font-family="sans-serif" font-size="14" lengthAdjust="spacing" textLength="91" x="558.5" y="854.0293">StateMachine</text><rect fill="#E2E2F0" height="30.4883" rx="2.5" ry="2.5" style="stroke:#181818;stroke-width:0.5;" width="48" x="841" y="5"/><text fill="#000000" font-family="sans-serif" font-size="14" lengthAdjust="spacing" textLength="34" x="848" y="25.5352">State</text><rect fill="#E2E2F0" height="30.4883" rx="2.5" ry="2.5" style="stroke:#181818;stroke-width:0.5;" width="48" x="841" y="833.4941"/><text fill="#000000" font-family="sans-serif" font-size="14" lengthAdjust="spacing" textLength="34" x="848" y="854.0293">State</text><rect fill="#E2E2F0" height="30.4883" rx="2.5" ry="2.5" style="stroke:#181818;stroke-width:0.5;" width="80" x="1029" y="5"/><text fill="#000000" font-family="sans-serif" font-size="14" lengthAdjust="spacing" textLength="66" x="1036" y="25.5352">ScanState</text><rect fill="#E2E2F0" height="30.4883" rx="2.5" ry="2.5" style="stroke:#181818;stroke-width:0.5;" width="80" x="1029" y="833.4941"/><text fill="#000000" font-family="sans-serif" font-size="14" lengthAdjust="spacing" textLength="66" x="1036" y="854.0293">ScanState</text><rect fill="#E2E2F0" height="30.4883" rx="2.5" ry="2.5" style="stroke:#181818;stroke-width:0.5;" width="91" x="1213.5" y="5"/><text fill="#000000" font-family="sans-serif" font-size="14" lengthAdjust="spacing" textLength="77" x="1220.5" y="25.5352">AttackState</text><rect fill="#E2E2F0" height="30.4883" rx="2.5" ry="2.5" style="stroke:#181818;stroke-width:0.5;" width="91" x="1213.5" y="833.4941"/><text fill="#000000" font-family="sans-serif" font-size="14" lengthAdjust="spacing" textLength="77" x="1220.5" y="854.0293">AttackState</text><polygon fill="#181818" points="203,63.7988,213,67.7988,203,71.7988,207,67.7988" style="stroke:#181818;stroke-width:1.0;"/><line style="stroke:#181818;stroke-width:1.0;" x1="39" x2="209" y1="67.7988" y2="67.7988"/><text fill="#000000" font-family="sans-serif" font-size="13" lengthAdjust="spacing" textLength="152" x="46" y="63.0566">instantiate SpecialAgent</text><polygon fill="#181818" points="371,93.1094,381,97.1094,371,101.1094,375,97.1094" style="stroke:#181818;stroke-width:1.0;"/><line style="stroke:#181818;stroke-width:1.0;" x1="215" x2="377" y1="97.1094" y2="97.1094"/><text fill="#000000" font-family="sans-serif" font-size="13" lengthAdjust="spacing" textLength="108" x="222" y="92.3672">instantiate Agent</text><polygon fill="#181818" points="592,122.4199,602,126.4199,592,130.4199,596,126.4199" style="stroke:#181818;stroke-width:1.0;"/><line style="stroke:#181818;stroke-width:1.0;" x1="215" x2="598" y1="126.4199" y2="126.4199"/><text fill="#000000" font-family="sans-serif" font-size="13" lengthAdjust="spacing" textLength="154" x="222" y="121.6777">instantiate StateMachine</text><polygon fill="#181818" points="226,151.7305,216,155.7305,226,159.7305,222,155.7305" style="stroke:#181818;stroke-width:1.0;"/><line style="stroke:#181818;stroke-width:1.0;" x1="220" x2="603" y1="155.7305" y2="155.7305"/><text fill="#000000" font-family="sans-serif" font-size="13" lengthAdjust="spacing" textLength="151" x="232" y="150.9883">affect instance to Agent</text><polygon fill="#181818" points="592,181.041,602,185.041,592,189.041,596,185.041" style="stroke:#181818;stroke-width:1.0;"/><line style="stroke:#181818;stroke-width:1.0;" x1="215" x2="598" y1="185.041" y2="185.041"/><text fill="#000000" font-family="sans-serif" font-size="13" lengthAdjust="spacing" textLength="139" x="222" y="180.2988">Set fsm to initial state</text><text fill="#000000" font-family="sans-serif" font-size="13" font-weight="bold" lengthAdjust="spacing" textLength="222" x="365" y="180.2988">self.__fsm.set_state(ScanState(...))</text><polygon fill="#181818" points="1057,210.3516,1067,214.3516,1057,218.3516,1061,214.3516" style="stroke:#181818;stroke-width:1.0;"/><line style="stroke:#181818;stroke-width:1.0;" x1="604" x2="1063" y1="214.3516" y2="214.3516"/><text fill="#000000" font-family="sans-serif" font-size="13" lengthAdjust="spacing" textLength="131" x="611" y="209.6094">instantiate ScanState</text><polygon fill="#181818" points="876,254.9727,866,258.9727,876,262.9727,872,258.9727" style="stroke:#181818;stroke-width:1.0;"/><line style="stroke:#181818;stroke-width:1.0;" x1="870" x2="1068" y1="258.9727" y2="258.9727"/><text fill="#000000" font-family="sans-serif" font-size="13" lengthAdjust="spacing" textLength="180" x="882" y="238.9199">instantiate State with super()</text><text fill="#000000" font-family="sans-serif" font-size="13" lengthAdjust="spacing" textLength="153" x="882" y="254.2305">in ScanState constructor</text><polygon fill="#181818" points="50,284.2832,40,288.2832,50,292.2832,46,288.2832" style="stroke:#181818;stroke-width:1.0;"/><line style="stroke:#181818;stroke-width:1.0;" x1="44" x2="214" y1="288.2832" y2="288.2832"/><text fill="#000000" font-family="sans-serif" font-size="13" lengthAdjust="spacing" textLength="151" x="56" y="283.541">affect instance to Agent</text><polygon fill="#181818" points="371,313.5938,381,317.5938,371,321.5938,375,317.5938" style="stroke:#181818;stroke-width:1.0;"/><line style="stroke:#181818;stroke-width:1.0;" x1="39" x2="377" y1="317.5938" y2="317.5938"/><text fill="#000000" font-family="sans-serif" font-size="13" lengthAdjust="spacing" textLength="120" x="46" y="312.8516">Call Agent.update()</text><polygon fill="#181818" points="226,342.9043,216,346.9043,226,350.9043,222,346.9043" style="stroke:#181818;stroke-width:1.0;"/><line style="stroke:#181818;stroke-width:1.0;" x1="220" x2="382" y1="346.9043" y2="346.9043"/><text fill="#000000" font-family="sans-serif" font-size="13" lengthAdjust="spacing" textLength="24" x="232" y="342.1621">Call</text><text fill="#000000" font-family="sans-serif" font-size="13" font-weight="bold" lengthAdjust="spacing" textLength="116" x="260" y="342.1621">self._on_update()</text><polygon fill="#181818" points="592,372.2148,602,376.2148,592,380.2148,596,376.2148" style="stroke:#181818;stroke-width:1.0;"/><line style="stroke:#181818;stroke-width:1.0;" x1="215" x2="598" y1="376.2148" y2="376.2148"/><text fill="#000000" font-family="sans-serif" font-size="13" lengthAdjust="spacing" textLength="24" x="222" y="371.4727">Call</text><text fill="#000000" font-family="sans-serif" font-size="13" font-weight="bold" lengthAdjust="spacing" textLength="144" x="250" y="371.4727">self.__fsm.do_action()</text><polygon fill="#181818" points="853,401.5254,863,405.5254,853,409.5254,857,405.5254" style="stroke:#181818;stroke-width:1.0;"/><line style="stroke:#181818;stroke-width:1.0;" x1="604" x2="859" y1="405.5254" y2="405.5254"/><text fill="#000000" font-family="sans-serif" font-size="13" lengthAdjust="spacing" textLength="24" x="611" y="400.7832">Call</text><text fill="#000000" font-family="sans-serif" font-size="13" font-weight="bold" lengthAdjust="spacing" textLength="209" x="639" y="400.7832">self.__current_state.do_action()</text><polygon fill="#181818" points="1057,430.8359,1067,434.8359,1057,438.8359,1061,434.8359" style="stroke:#181818;stroke-width:1.0;"/><line style="stroke:#181818;stroke-width:1.0;" x1="865" x2="1063" y1="434.8359" y2="434.8359"/><text fill="#000000" font-family="sans-serif" font-size="13" lengthAdjust="spacing" textLength="24" x="872" y="430.0938">Call</text><text fill="#000000" font-family="sans-serif" font-size="13" font-weight="bold" lengthAdjust="spacing" textLength="75" x="900" y="430.0938">do_action()</text><line style="stroke:#181818;stroke-width:1.0;" x1="1069" x2="1111" y1="510.0781" y2="510.0781"/><line style="stroke:#181818;stroke-width:1.0;" x1="1111" x2="1111" y1="510.0781" y2="523.0781"/><line style="stroke:#181818;stroke-width:1.0;" x1="1070" x2="1111" y1="523.0781" y2="523.0781"/><polygon fill="#181818" points="1080,519.0781,1070,523.0781,1080,527.0781,1076,523.0781" style="stroke:#181818;stroke-width:1.0;"/><text fill="#000000" font-family="sans-serif" font-size="13" lengthAdjust="spacing" textLength="114" x="1076" y="459.4043">Check if there is a</text><text fill="#000000" font-family="sans-serif" font-size="13" lengthAdjust="spacing" textLength="119" x="1076" y="474.7148">target within range</text><text fill="#000000" font-family="sans-serif" font-size="13" lengthAdjust="spacing" textLength="172" x="1076" y="490.0254">if yes switch to AttackState</text><text fill="#000000" font-family="sans-serif" font-size="13" lengthAdjust="spacing" textLength="124" x="1076" y="505.3359">if no keep scanning</text><polygon fill="#181818" points="615,548.3887,605,552.3887,615,556.3887,611,552.3887" style="stroke:#181818;stroke-width:1.0;"/><line style="stroke:#181818;stroke-width:1.0;" x1="609" x2="1068" y1="552.3887" y2="552.3887"/><text fill="#000000" font-family="sans-serif" font-size="13" lengthAdjust="spacing" textLength="24" x="621" y="547.6465">Call</text><text fill="#000000" font-family="sans-serif" font-size="13" font-weight="bold" lengthAdjust="spacing" textLength="234" x="649" y="547.6465">self.__fsm.set_state(AttackState(...))</text><polygon fill="#181818" points="371,577.6992,381,581.6992,371,585.6992,375,581.6992" style="stroke:#181818;stroke-width:1.0;"/><line style="stroke:#181818;stroke-width:1.0;" x1="39" x2="377" y1="581.6992" y2="581.6992"/><text fill="#000000" font-family="sans-serif" font-size="13" lengthAdjust="spacing" textLength="120" x="46" y="576.957">Call Agent.update()</text><polygon fill="#181818" points="226,607.0098,216,611.0098,226,615.0098,222,611.0098" style="stroke:#181818;stroke-width:1.0;"/><line style="stroke:#181818;stroke-width:1.0;" x1="220" x2="382" y1="611.0098" y2="611.0098"/><text fill="#000000" font-family="sans-serif" font-size="13" lengthAdjust="spacing" textLength="24" x="232" y="606.2676">Call</text><text fill="#000000" font-family="sans-serif" font-size="13" font-weight="bold" lengthAdjust="spacing" textLength="116" x="260" y="606.2676">self._on_update()</text><polygon fill="#181818" points="592,636.3203,602,640.3203,592,644.3203,596,640.3203" style="stroke:#181818;stroke-width:1.0;"/><line style="stroke:#181818;stroke-width:1.0;" x1="215" x2="598" y1="640.3203" y2="640.3203"/><text fill="#000000" font-family="sans-serif" font-size="13" lengthAdjust="spacing" textLength="24" x="222" y="635.5781">Call</text><text fill="#000000" font-family="sans-serif" font-size="13" font-weight="bold" lengthAdjust="spacing" textLength="144" x="250" y="635.5781">self.__fsm.do_action()</text><polygon fill="#181818" points="853,665.6309,863,669.6309,853,673.6309,857,669.6309" style="stroke:#181818;stroke-width:1.0;"/><line style="stroke:#181818;stroke-width:1.0;" x1="604" x2="859" y1="669.6309" y2="669.6309"/><text fill="#000000" font-family="sans-serif" font-size="13" lengthAdjust="spacing" textLength="24" x="611" y="664.8887">Call</text><text fill="#000000" font-family="sans-serif" font-size="13" font-weight="bold" lengthAdjust="spacing" textLength="209" x="639" y="664.8887">self.__current_state.do_action()</text><polygon fill="#181818" points="1247,694.9414,1257,698.9414,1247,702.9414,1251,698.9414" style="stroke:#181818;stroke-width:1.0;"/><line style="stroke:#181818;stroke-width:1.0;" x1="865" x2="1253" y1="698.9414" y2="698.9414"/><text fill="#000000" font-family="sans-serif" font-size="13" lengthAdjust="spacing" textLength="24" x="872" y="694.1992">Call</text><text fill="#000000" font-family="sans-serif" font-size="13" font-weight="bold" lengthAdjust="spacing" textLength="75" x="900" y="694.1992">do_action()</text><line style="stroke:#181818;stroke-width:1.0;" x1="1259" x2="1301" y1="774.1836" y2="774.1836"/><line style="stroke:#181818;stroke-width:1.0;" x1="1301" x2="1301" y1="774.1836" y2="787.1836"/><line style="stroke:#181818;stroke-width:1.0;" x1="1260" x2="1301" y1="787.1836" y2="787.1836"/><polygon fill="#181818" points="1270,783.1836,1260,787.1836,1270,791.1836,1266,787.1836" style="stroke:#181818;stroke-width:1.0;"/><text fill="#000000" font-family="sans-serif" font-size="13" lengthAdjust="spacing" textLength="114" x="1266" y="723.5098">Check if there is a</text><text fill="#000000" font-family="sans-serif" font-size="13" lengthAdjust="spacing" textLength="119" x="1266" y="738.8203">target within range</text><text fill="#000000" font-family="sans-serif" font-size="13" lengthAdjust="spacing" textLength="155" x="1266" y="754.1309">if no switch to ScanState</text><text fill="#000000" font-family="sans-serif" font-size="13" lengthAdjust="spacing" textLength="131" x="1266" y="769.4414">if yes keep attacking</text><polygon fill="#181818" points="615,812.4941,605,816.4941,615,820.4941,611,816.4941" style="stroke:#181818;stroke-width:1.0;"/><line style="stroke:#181818;stroke-width:1.0;" x1="609" x2="1258" y1="816.4941" y2="816.4941"/><text fill="#000000" font-family="sans-serif" font-size="13" lengthAdjust="spacing" textLength="24" x="621" y="811.752">Call</text><text fill="#000000" font-family="sans-serif" font-size="13" font-weight="bold" lengthAdjust="spacing" textLength="222" x="649" y="811.752">self.__fsm.set_state(ScanState(...))</text><!--SRC=[tPI_ReCm4CRtFCMDW5GUe4Ebg7Edh97GoJd02Z6MVQZAszS60ZQcKRfsW_Dt_xwVGQDXAQH6nN13gKfzF-WWTj8a97R7XXH71sdanCZqXQALYjA3E29GfT4ZCuhh53_Cmy3RHpJ3EqXbsQcbKyNJXIy-RKU_Bmm7tzGFLmfVqh6mhadmd2q8k7-fsuaOQdlpSgcawzg1zG8e2ajTNLQLEoqjSJM6iyMvh2pBF2-ATAo7OhFAOldoj4opipHyIsx13ffCbf-LL6i14BrJcq5mRvBjPcnF_0Z9pjvzOjTDp-MWBtwv_B3w5TayIX_UzAfwwBqHJusE4aTJBts5WcMlibqR9sFYD34OuwfFBFOAR03CsHjXv7yWRabSGTR0BHa2QG7Xh1XDu-w8n-4W65GDkQXJtSc2TM7HZjwktyvqh7gu4ccmhe73r-nWV-BDUk62mikL-_S8WwL_WHZwdIJy3QGZjN9SAIsGHumuDl0SDvrV9vdyEdu0]--></g></svg>