<?xml version="1.0" encoding="us-ascii" standalone="no"?><svg xmlns="http://www.w3.org/2000/svg" xmlns:xlink="http://www.w3.org/1999/xlink" contentStyleType="text/css" height="517px" preserveAspectRatio="none" style="width:604px;height:517px;background:#FFFFFF;" version="1.1" viewBox="0 0 604 517" width="604px" zoomAndPan="magnify"><defs/><g><!--class StateMachine--><g id="elem_StateMachine"><rect codeLine="3" fill="#F1F1F1" height="97.4648" id="StateMachine" rx="2.5" ry="2.5" style="stroke:#181818;stroke-width:0.5;" width="217" x="7" y="131.49"/><ellipse cx="65.75" cy="147.49" fill="#ADD1B2" rx="11" ry="11" style="stroke:#181818;stroke-width:1.0;"/><path d="M68.7231,153.1331 Q68.1421,153.4319 67.5029,153.5813 Q66.8638,153.7307 66.1582,153.7307 Q63.6514,153.7307 62.3315,152.0789 Q61.0117,150.427 61.0117,147.3059 Q61.0117,144.1765 62.3315,142.5247 Q63.6514,140.8728 66.1582,140.8728 Q66.8638,140.8728 67.5112,141.0222 Q68.1587,141.1716 68.7231,141.4705 L68.7231,144.1931 Q68.0923,143.6121 67.4988,143.3423 Q66.9053,143.0725 66.2744,143.0725 Q64.9297,143.0725 64.2449,144.1392 Q63.5601,145.2058 63.5601,147.3059 Q63.5601,149.3977 64.2449,150.4644 Q64.9297,151.531 66.2744,151.531 Q66.9053,151.531 67.4988,151.2612 Q68.0923,150.9915 68.7231,150.4104 Z " fill="#000000"/><text fill="#000000" font-family="sans-serif" font-size="14" lengthAdjust="spacing" textLength="91" x="86.25" y="152.781">StateMachine</text><line style="stroke:#181818;stroke-width:0.5;" x1="8" x2="223" y1="163.49" y2="163.49"/><text fill="#000000" font-family="sans-serif" font-size="14" lengthAdjust="spacing" textLength="148" x="13" y="181.0252">-current_state : IState</text><line style="stroke:#181818;stroke-width:0.5;" x1="8" x2="223" y1="187.9783" y2="187.9783"/><text fill="#000000" font-family="sans-serif" font-size="14" lengthAdjust="spacing" textLength="205" x="13" y="205.5134">+set_state(state : IState) : void</text><text fill="#000000" font-family="sans-serif" font-size="14" lengthAdjust="spacing" textLength="125" x="13" y="222.0017">+do_action(): void</text></g><!--class State--><g id="elem_State"><rect codeLine="9" fill="#F1F1F1" height="80.9766" id="State" rx="2.5" ry="2.5" style="stroke:#181818;stroke-width:0.5;" width="222" x="258.5" y="139.74"/><ellipse cx="348.25" cy="155.74" fill="#ADD1B2" rx="11" ry="11" style="stroke:#181818;stroke-width:1.0;"/><path d="M351.2231,161.3831 Q350.6421,161.6819 350.0029,161.8313 Q349.3638,161.9807 348.6582,161.9807 Q346.1514,161.9807 344.8315,160.3289 Q343.5117,158.677 343.5117,155.5559 Q343.5117,152.4265 344.8315,150.7747 Q346.1514,149.1228 348.6582,149.1228 Q349.3638,149.1228 350.0112,149.2722 Q350.6587,149.4216 351.2231,149.7205 L351.2231,152.4431 Q350.5923,151.8621 349.9988,151.5923 Q349.4053,151.3225 348.7744,151.3225 Q347.4297,151.3225 346.7449,152.3892 Q346.0601,153.4558 346.0601,155.5559 Q346.0601,157.6477 346.7449,158.7144 Q347.4297,159.781 348.7744,159.781 Q349.4053,159.781 349.9988,159.5112 Q350.5923,159.2415 351.2231,158.6604 Z " fill="#000000"/><text fill="#000000" font-family="sans-serif" font-size="14" lengthAdjust="spacing" textLength="34" x="368.75" y="161.031">State</text><line style="stroke:#181818;stroke-width:0.5;" x1="259.5" x2="479.5" y1="171.74" y2="171.74"/><text fill="#000000" font-family="sans-serif" font-size="14" lengthAdjust="spacing" textLength="210" x="264.5" y="189.2752">#state_machine : StateMachine</text><line style="stroke:#181818;stroke-width:0.5;" x1="259.5" x2="479.5" y1="196.2283" y2="196.2283"/><text fill="#000000" font-family="sans-serif" font-size="14" lengthAdjust="spacing" textLength="129" x="264.5" y="213.7634">+do_action() : void</text></g><!--class AttackState--><g id="elem_AttackState"><rect codeLine="14" fill="#F1F1F1" height="80.9766" id="AttackState" rx="2.5" ry="2.5" style="stroke:#181818;stroke-width:0.5;" width="141" x="280" y="429.93"/><ellipse cx="309.4" cy="445.93" fill="#ADD1B2" rx="11" ry="11" style="stroke:#181818;stroke-width:1.0;"/><path d="M312.3731,451.5731 Q311.7921,451.8719 311.1529,452.0213 Q310.5138,452.1707 309.8082,452.1707 Q307.3014,452.1707 305.9815,450.5189 Q304.6617,448.867 304.6617,445.7459 Q304.6617,442.6165 305.9815,440.9647 Q307.3014,439.3128 309.8082,439.3128 Q310.5138,439.3128 311.1612,439.4622 Q311.8087,439.6116 312.3731,439.9105 L312.3731,442.6331 Q311.7423,442.0521 311.1488,441.7823 Q310.5553,441.5125 309.9244,441.5125 Q308.5797,441.5125 307.8949,442.5792 Q307.2101,443.6458 307.2101,445.7459 Q307.2101,447.8377 307.8949,448.9044 Q308.5797,449.971 309.9244,449.971 Q310.5553,449.971 311.1488,449.7012 Q311.7423,449.4315 312.3731,448.8504 Z " fill="#000000"/><text fill="#000000" font-family="sans-serif" font-size="14" lengthAdjust="spacing" textLength="77" x="326.6" y="451.221">AttackState</text><line style="stroke:#181818;stroke-width:0.5;" x1="281" x2="420" y1="461.93" y2="461.93"/><line style="stroke:#181818;stroke-width:0.5;" x1="281" x2="420" y1="469.93" y2="469.93"/><text fill="#000000" font-family="sans-serif" font-size="14" lengthAdjust="spacing" textLength="129" x="286" y="487.4652">+do_action() : void</text><text fill="#000000" font-family="sans-serif" font-size="14" lengthAdjust="spacing" textLength="100" x="286" y="503.9534">-attack() : void</text></g><!--class ScanState--><g id="elem_ScanState"><rect codeLine="19" fill="#F1F1F1" height="80.9766" id="ScanState" rx="2.5" ry="2.5" style="stroke:#181818;stroke-width:0.5;" width="141" x="456" y="429.93"/><ellipse cx="490.35" cy="445.93" fill="#ADD1B2" rx="11" ry="11" style="stroke:#181818;stroke-width:1.0;"/><path d="M493.3231,451.5731 Q492.7421,451.8719 492.1029,452.0213 Q491.4638,452.1707 490.7582,452.1707 Q488.2514,452.1707 486.9315,450.5189 Q485.6117,448.867 485.6117,445.7459 Q485.6117,442.6165 486.9315,440.9647 Q488.2514,439.3128 490.7582,439.3128 Q491.4638,439.3128 492.1112,439.4622 Q492.7587,439.6116 493.3231,439.9105 L493.3231,442.6331 Q492.6923,442.0521 492.0988,441.7823 Q491.5053,441.5125 490.8744,441.5125 Q489.5297,441.5125 488.8449,442.5792 Q488.1601,443.6458 488.1601,445.7459 Q488.1601,447.8377 488.8449,448.9044 Q489.5297,449.971 490.8744,449.971 Q491.5053,449.971 492.0988,449.7012 Q492.6923,449.4315 493.3231,448.8504 Z " fill="#000000"/><text fill="#000000" font-family="sans-serif" font-size="14" lengthAdjust="spacing" textLength="66" x="508.65" y="451.221">ScanState</text><line style="stroke:#181818;stroke-width:0.5;" x1="457" x2="596" y1="461.93" y2="461.93"/><line style="stroke:#181818;stroke-width:0.5;" x1="457" x2="596" y1="469.93" y2="469.93"/><text fill="#000000" font-family="sans-serif" font-size="14" lengthAdjust="spacing" textLength="129" x="462" y="487.4652">+do_action() : void</text><text fill="#000000" font-family="sans-serif" font-size="14" lengthAdjust="spacing" textLength="90" x="462" y="503.9534">-scan() : void</text></g><!--class SpecialAgent--><g id="elem_SpecialAgent"><rect codeLine="24" fill="#F1F1F1" height="80.9766" id="SpecialAgent" rx="2.5" ry="2.5" style="stroke:#181818;stroke-width:0.5;" width="147" x="79" y="429.93"/><ellipse cx="105.7" cy="445.93" fill="#ADD1B2" rx="11" ry="11" style="stroke:#181818;stroke-width:1.0;"/><path d="M108.6731,451.5731 Q108.0921,451.8719 107.4529,452.0213 Q106.8138,452.1707 106.1082,452.1707 Q103.6014,452.1707 102.2815,450.5189 Q100.9617,448.867 100.9617,445.7459 Q100.9617,442.6165 102.2815,440.9647 Q103.6014,439.3128 106.1082,439.3128 Q106.8138,439.3128 107.4612,439.4622 Q108.1087,439.6116 108.6731,439.9105 L108.6731,442.6331 Q108.0423,442.0521 107.4488,441.7823 Q106.8553,441.5125 106.2244,441.5125 Q104.8797,441.5125 104.1949,442.5792 Q103.5101,443.6458 103.5101,445.7459 Q103.5101,447.8377 104.1949,448.9044 Q104.8797,449.971 106.2244,449.971 Q106.8553,449.971 107.4488,449.7012 Q108.0423,449.4315 108.6731,448.8504 Z " fill="#000000"/><text fill="#000000" font-family="sans-serif" font-size="14" lengthAdjust="spacing" textLength="89" x="122.3" y="451.221">SpecialAgent</text><line style="stroke:#181818;stroke-width:0.5;" x1="80" x2="225" y1="461.93" y2="461.93"/><text fill="#000000" font-family="sans-serif" font-size="14" lengthAdjust="spacing" textLength="133" x="85" y="479.4652">#fsm: StateMachine</text><line style="stroke:#181818;stroke-width:0.5;" x1="80" x2="225" y1="486.4183" y2="486.4183"/><text fill="#000000" font-family="sans-serif" font-size="14" lengthAdjust="spacing" textLength="135" x="85" y="503.9534">+on_update() : void</text></g><!--class Agent--><g id="elem_Agent"><rect codeLine="29" fill="#F1F1F1" height="64.4883" id="Agent" rx="2.5" ry="2.5" style="stroke:#181818;stroke-width:0.5;" width="111" x="97" y="297.2"/><ellipse cx="129.1" cy="313.2" fill="#ADD1B2" rx="11" ry="11" style="stroke:#181818;stroke-width:1.0;"/><path d="M132.0731,318.8431 Q131.4921,319.1419 130.8529,319.2913 Q130.2138,319.4407 129.5082,319.4407 Q127.0014,319.4407 125.6815,317.7889 Q124.3617,316.137 124.3617,313.0159 Q124.3617,309.8865 125.6815,308.2347 Q127.0014,306.5828 129.5082,306.5828 Q130.2138,306.5828 130.8612,306.7322 Q131.5087,306.8816 132.0731,307.1805 L132.0731,309.9031 Q131.4423,309.3221 130.8488,309.0523 Q130.2553,308.7825 129.6244,308.7825 Q128.2797,308.7825 127.5949,309.8492 Q126.9101,310.9158 126.9101,313.0159 Q126.9101,315.1077 127.5949,316.1744 Q128.2797,317.241 129.6244,317.241 Q130.2553,317.241 130.8488,316.9712 Q131.4423,316.7015 132.0731,316.1204 Z " fill="#000000"/><text fill="#000000" font-family="sans-serif" font-size="14" lengthAdjust="spacing" textLength="41" x="146.9" y="318.491">Agent</text><line style="stroke:#181818;stroke-width:0.5;" x1="98" x2="207" y1="329.2" y2="329.2"/><line style="stroke:#181818;stroke-width:0.5;" x1="98" x2="207" y1="337.2" y2="337.2"/><text fill="#000000" font-family="sans-serif" font-size="14" lengthAdjust="spacing" textLength="99" x="103" y="354.7352">update() : void</text></g><!--class AgentState--><g id="elem_AgentState"><rect codeLine="33" fill="#F1F1F1" height="80.9766" id="AgentState" rx="2.5" ry="2.5" style="stroke:#181818;stroke-width:0.5;" width="141" x="289" y="288.96"/><ellipse cx="319.3" cy="304.96" fill="#ADD1B2" rx="11" ry="11" style="stroke:#181818;stroke-width:1.0;"/><path d="M322.2731,310.6031 Q321.6921,310.9019 321.0529,311.0513 Q320.4138,311.2007 319.7082,311.2007 Q317.2014,311.2007 315.8815,309.5489 Q314.5617,307.897 314.5617,304.7759 Q314.5617,301.6465 315.8815,299.9947 Q317.2014,298.3428 319.7082,298.3428 Q320.4138,298.3428 321.0612,298.4922 Q321.7087,298.6416 322.2731,298.9405 L322.2731,301.6631 Q321.6423,301.0821 321.0488,300.8123 Q320.4553,300.5425 319.8244,300.5425 Q318.4797,300.5425 317.7949,301.6092 Q317.1101,302.6758 317.1101,304.7759 Q317.1101,306.8677 317.7949,307.9344 Q318.4797,309.001 319.8244,309.001 Q320.4553,309.001 321.0488,308.7312 Q321.6423,308.4615 322.2731,307.8804 Z " fill="#000000"/><text fill="#000000" font-family="sans-serif" font-size="14" lengthAdjust="spacing" textLength="75" x="336.7" y="310.251">AgentState</text><line style="stroke:#181818;stroke-width:0.5;" x1="290" x2="429" y1="320.96" y2="320.96"/><text fill="#000000" font-family="sans-serif" font-size="14" lengthAdjust="spacing" textLength="97" x="295" y="338.4952">#agent: Agent</text><line style="stroke:#181818;stroke-width:0.5;" x1="290" x2="429" y1="345.4483" y2="345.4483"/><text fill="#000000" font-family="sans-serif" font-size="14" lengthAdjust="spacing" textLength="129" x="295" y="362.9834">+do_action() : void</text></g><!--class IState--><g id="elem_IState"><rect codeLine="38" fill="#F1F1F1" height="64.4883" id="IState" rx="2.5" ry="2.5" style="stroke:#181818;stroke-width:0.5;" width="141" x="172" y="7"/><ellipse cx="219.25" cy="23" fill="#B4A7E5" rx="11" ry="11" style="stroke:#181818;stroke-width:1.0;"/><path d="M215.1777,18.7651 L215.1777,16.6069 L222.5571,16.6069 L222.5571,18.7651 L220.0918,18.7651 L220.0918,26.8418 L222.5571,26.8418 L222.5571,29 L215.1777,29 L215.1777,26.8418 L217.6431,26.8418 L217.6431,18.7651 Z " fill="#000000"/><text fill="#000000" font-family="sans-serif" font-size="14" font-style="italic" lengthAdjust="spacing" textLength="38" x="239.75" y="28.291">IState</text><line style="stroke:#181818;stroke-width:0.5;" x1="173" x2="312" y1="39" y2="39"/><line style="stroke:#181818;stroke-width:0.5;" x1="173" x2="312" y1="47" y2="47"/><text fill="#000000" font-family="sans-serif" font-size="14" lengthAdjust="spacing" textLength="129" x="178" y="64.5352">+do_action() : void</text></g><!--reverse link StateMachine to State--><g id="link_StateMachine_State"><path codeLine="42" d="M236.14,180.22 C247.5,180.22 246.86,180.22 258.21,180.22 " fill="none" id="StateMachine-backto-State" style="stroke:#181818;stroke-width:1.0;"/><polygon fill="#181818" points="224.14,180.22,230.14,184.22,236.14,180.22,230.14,176.22,224.14,180.22" style="stroke:#181818;stroke-width:1.0;"/></g><!--reverse link IState to StateMachine--><g id="link_IState_StateMachine"><path codeLine="43" d="M205.5846,80.638 C189.5546,98.178 177.37,111.51 159.41,131.17 " fill="none" id="IState-backto-StateMachine" style="stroke:#181818;stroke-width:1.0;"/><polygon fill="none" points="213.68,71.78,206.6796,73.5105,205.5846,80.638,212.585,78.9075,213.68,71.78" style="stroke:#181818;stroke-width:1.0;"/></g><!--reverse link AgentState to AttackState--><g id="link_AgentState_AttackState"><path codeLine="44" d="M355.7617,388.2327 C354.5617,406.8427 354.28,410.98 353.08,429.59 " fill="none" id="AgentState-backto-AttackState" style="stroke:#181818;stroke-width:1.0;"/><polygon fill="none" points="356.92,370.27,349.7742,387.8466,361.7493,388.6188,356.92,370.27" style="stroke:#181818;stroke-width:1.0;"/></g><!--reverse link AgentState to ScanState--><g id="link_AgentState_ScanState"><path codeLine="45" d="M421.1951,381.7848 C443.5551,400.3948 456.28,410.98 478.64,429.59 " fill="none" id="AgentState-backto-ScanState" style="stroke:#181818;stroke-width:1.0;"/><polygon fill="none" points="407.36,370.27,417.3568,386.3965,425.0333,377.1731,407.36,370.27" style="stroke:#181818;stroke-width:1.0;"/></g><!--reverse link Agent to AgentState--><g id="link_Agent_AgentState"><path codeLine="46" d="M220.29,329.45 C247.07,329.45 261.85,329.45 288.62,329.45 " fill="none" id="Agent-backto-AgentState" style="stroke:#181818;stroke-width:1.0;"/><polygon fill="none" points="208.29,329.45,214.29,333.45,220.29,329.45,214.29,325.45,208.29,329.45" style="stroke:#181818;stroke-width:1.0;"/></g><!--reverse link State to AgentState--><g id="link_State_AgentState"><path codeLine="47" d="M365.5727,239.0188 C364.1527,259.9688 363.63,267.62 362.21,288.57 " fill="none" id="State-backto-AgentState" style="stroke:#181818;stroke-width:1.0;"/><polygon fill="none" points="366.79,221.06,359.5865,238.613,371.559,239.4245,366.79,221.06" style="stroke:#181818;stroke-width:1.0;"/></g><!--reverse link Agent to SpecialAgent--><g id="link_Agent_SpecialAgent"><path codeLine="48" d="M152.5,379.98 C152.5,400 152.5,408.09 152.5,429.54 " fill="none" id="Agent-backto-SpecialAgent" style="stroke:#181818;stroke-width:1.0;"/><polygon fill="none" points="152.5,361.98,146.5,379.98,158.5,379.98,152.5,361.98" style="stroke:#181818;stroke-width:1.0;"/></g><!--link StateMachine to Agent--><g id="link_StateMachine_Agent"><path codeLine="49" d="M127.62,229.43 C133.18,251.57 136.6928,265.5625 141.6328,285.2025 " fill="none" id="StateMachine-to-Agent" style="stroke:#181818;stroke-width:1.0;"/><polygon fill="none" points="144.56,296.84,146.9756,290.0455,141.6328,285.2025,139.2173,291.997,144.56,296.84" style="stroke:#181818;stroke-width:1.0;"/></g><!--reverse link IState to State--><g id="link_IState_State"><path codeLine="50" d="M283.4575,85.0722 C301.7475,105.1022 313.45,117.89 333.06,139.34 " fill="none" id="IState-backto-State" style="stroke:#181818;stroke-width:1.0;"/><polygon fill="none" points="271.32,71.78,279.0268,89.118,287.8882,81.0263,271.32,71.78" style="stroke:#181818;stroke-width:1.0;"/></g><!--SRC=[ZL91RiCW4Bpp2gHUabP8FLjLfHnpwCaFiBPuaw34OC4wbPhaxyKOjv0WgvpGpkmiCuixAjs3XOxB4pYt8RBgSo3SIgDhzOtybR60y9g0y0FaGMda5yRz4NAm5ZKrRiHunRU15B0NXx6-oj6rlvsDQYTMQngGf8nUhMFvbWsCavvu46cwEB_AdlCWnU-rl2-GnrInH0-U850B6hK4_Iy5vucb_XwbWjDcxnERRUrSLx9YT3FqxPXTmKhIlqpA0eInKat0KbvA4zeTI8phMZ3hsTcdU1PMxGya9aCv9ePUcFb_fDiOWUjxyc3sb_CZDfatyw1x96kBQcdggU2lbg_bAuZ6twwYDLzwjiD-0000]--></g></svg>