<?xml version="1.0" encoding="us-ascii" standalone="no"?><svg xmlns="http://www.w3.org/2000/svg" xmlns:xlink="http://www.w3.org/1999/xlink" contentStyleType="text/css" height="360px" preserveAspectRatio="none" style="width:555px;height:360px;background:#FFFFFF;" version="1.1" viewBox="0 0 555 360" width="555px" zoomAndPan="magnify"><defs/><g><!--class StateMachine--><g id="elem_StateMachine"><rect codeLine="3" fill="#F1F1F1" height="80.9766" id="StateMachine" rx="2.5" ry="2.5" style="stroke:#181818;stroke-width:0.5;" width="202" x="346" y="7"/><ellipse cx="397.25" cy="23" fill="#ADD1B2" rx="11" ry="11" style="stroke:#181818;stroke-width:1.0;"/><path d="M400.2231,28.6431 Q399.6421,28.9419 399.0029,29.0913 Q398.3638,29.2407 397.6582,29.2407 Q395.1514,29.2407 393.8315,27.5889 Q392.5117,25.937 392.5117,22.8159 Q392.5117,19.6865 393.8315,18.0347 Q395.1514,16.3828 397.6582,16.3828 Q398.3638,16.3828 399.0112,16.5322 Q399.6587,16.6816 400.2231,16.9805 L400.2231,19.7031 Q399.5923,19.1221 398.9988,18.8523 Q398.4053,18.5825 397.7744,18.5825 Q396.4297,18.5825 395.7449,19.6492 Q395.0601,20.7158 395.0601,22.8159 Q395.0601,24.9077 395.7449,25.9744 Q396.4297,27.041 397.7744,27.041 Q398.4053,27.041 398.9988,26.7712 Q399.5923,26.5015 400.2231,25.9204 Z " fill="#000000"/><text fill="#000000" font-family="sans-serif" font-size="14" lengthAdjust="spacing" textLength="91" x="417.75" y="28.291">StateMachine</text><line style="stroke:#181818;stroke-width:0.5;" x1="347" x2="547" y1="39" y2="39"/><text fill="#000000" font-family="sans-serif" font-size="14" lengthAdjust="spacing" textLength="136" x="352" y="56.5352">current_state : State</text><line style="stroke:#181818;stroke-width:0.5;" x1="347" x2="547" y1="63.4883" y2="63.4883"/><text fill="#000000" font-family="sans-serif" font-size="14" lengthAdjust="spacing" textLength="190" x="352" y="81.0234">set_state(state : State) : void</text></g><!--class State--><g id="elem_State"><rect codeLine="8" fill="#F1F1F1" height="80.9766" id="State" rx="2.5" ry="2.5" style="stroke:#181818;stroke-width:0.5;" width="222" x="89" y="7"/><ellipse cx="178.75" cy="23" fill="#ADD1B2" rx="11" ry="11" style="stroke:#181818;stroke-width:1.0;"/><path d="M181.7231,28.6431 Q181.1421,28.9419 180.5029,29.0913 Q179.8638,29.2407 179.1582,29.2407 Q176.6514,29.2407 175.3315,27.5889 Q174.0117,25.937 174.0117,22.8159 Q174.0117,19.6865 175.3315,18.0347 Q176.6514,16.3828 179.1582,16.3828 Q179.8638,16.3828 180.5112,16.5322 Q181.1587,16.6816 181.7231,16.9805 L181.7231,19.7031 Q181.0923,19.1221 180.4988,18.8523 Q179.9053,18.5825 179.2744,18.5825 Q177.9297,18.5825 177.2449,19.6492 Q176.5601,20.7158 176.5601,22.8159 Q176.5601,24.9077 177.2449,25.9744 Q177.9297,27.041 179.2744,27.041 Q179.9053,27.041 180.4988,26.7712 Q181.0923,26.5015 181.7231,25.9204 Z " fill="#000000"/><text fill="#000000" font-family="sans-serif" font-size="14" lengthAdjust="spacing" textLength="34" x="199.25" y="28.291">State</text><line style="stroke:#181818;stroke-width:0.5;" x1="90" x2="310" y1="39" y2="39"/><text fill="#000000" font-family="sans-serif" font-size="14" lengthAdjust="spacing" textLength="210" x="95" y="56.5352">#state_machine : StateMachine</text><line style="stroke:#181818;stroke-width:0.5;" x1="90" x2="310" y1="63.4883" y2="63.4883"/><text fill="#000000" font-family="sans-serif" font-size="14" lengthAdjust="spacing" textLength="118" x="95" y="81.0234">do_action() : void</text></g><!--class AttackState--><g id="elem_AttackState"><rect codeLine="13" fill="#F1F1F1" height="80.9766" id="AttackState" rx="2.5" ry="2.5" style="stroke:#181818;stroke-width:0.5;" width="130" x="7" y="147.98"/><ellipse cx="31.45" cy="163.98" fill="#ADD1B2" rx="11" ry="11" style="stroke:#181818;stroke-width:1.0;"/><path d="M34.4231,169.6231 Q33.8421,169.9219 33.2029,170.0713 Q32.5638,170.2207 31.8582,170.2207 Q29.3514,170.2207 28.0315,168.5689 Q26.7117,166.917 26.7117,163.7959 Q26.7117,160.6665 28.0315,159.0147 Q29.3514,157.3628 31.8582,157.3628 Q32.5638,157.3628 33.2112,157.5122 Q33.8587,157.6616 34.4231,157.9605 L34.4231,160.6831 Q33.7923,160.1021 33.1988,159.8323 Q32.6053,159.5625 31.9744,159.5625 Q30.6297,159.5625 29.9449,160.6292 Q29.2601,161.6958 29.2601,163.7959 Q29.2601,165.8877 29.9449,166.9544 Q30.6297,168.021 31.9744,168.021 Q32.6053,168.021 33.1988,167.7512 Q33.7923,167.4815 34.4231,166.9004 Z " fill="#000000"/><text fill="#000000" font-family="sans-serif" font-size="14" lengthAdjust="spacing" textLength="77" x="47.55" y="169.271">AttackState</text><line style="stroke:#181818;stroke-width:0.5;" x1="8" x2="136" y1="179.98" y2="179.98"/><line style="stroke:#181818;stroke-width:0.5;" x1="8" x2="136" y1="187.98" y2="187.98"/><text fill="#000000" font-family="sans-serif" font-size="14" lengthAdjust="spacing" textLength="118" x="13" y="205.5152">do_action() : void</text><text fill="#000000" font-family="sans-serif" font-size="14" lengthAdjust="spacing" textLength="92" x="13" y="222.0034">attack() : void</text></g><!--class ScanState--><g id="elem_ScanState"><rect codeLine="18" fill="#F1F1F1" height="80.9766" id="ScanState" rx="2.5" ry="2.5" style="stroke:#181818;stroke-width:0.5;" width="130" x="172" y="147.98"/><ellipse cx="201.4" cy="163.98" fill="#ADD1B2" rx="11" ry="11" style="stroke:#181818;stroke-width:1.0;"/><path d="M204.3731,169.6231 Q203.7921,169.9219 203.1529,170.0713 Q202.5138,170.2207 201.8082,170.2207 Q199.3014,170.2207 197.9815,168.5689 Q196.6617,166.917 196.6617,163.7959 Q196.6617,160.6665 197.9815,159.0147 Q199.3014,157.3628 201.8082,157.3628 Q202.5138,157.3628 203.1612,157.5122 Q203.8087,157.6616 204.3731,157.9605 L204.3731,160.6831 Q203.7423,160.1021 203.1488,159.8323 Q202.5553,159.5625 201.9244,159.5625 Q200.5797,159.5625 199.8949,160.6292 Q199.2101,161.6958 199.2101,163.7959 Q199.2101,165.8877 199.8949,166.9544 Q200.5797,168.021 201.9244,168.021 Q202.5553,168.021 203.1488,167.7512 Q203.7423,167.4815 204.3731,166.9004 Z " fill="#000000"/><text fill="#000000" font-family="sans-serif" font-size="14" lengthAdjust="spacing" textLength="66" x="218.6" y="169.271">ScanState</text><line style="stroke:#181818;stroke-width:0.5;" x1="173" x2="301" y1="179.98" y2="179.98"/><line style="stroke:#181818;stroke-width:0.5;" x1="173" x2="301" y1="187.98" y2="187.98"/><text fill="#000000" font-family="sans-serif" font-size="14" lengthAdjust="spacing" textLength="118" x="178" y="205.5152">do_action() : void</text><text fill="#000000" font-family="sans-serif" font-size="14" lengthAdjust="spacing" textLength="82" x="178" y="222.0034">scan() : void</text></g><!--class SpecialAgent--><g id="elem_SpecialAgent"><rect codeLine="23" fill="#F1F1F1" height="64.4883" id="SpecialAgent" rx="2.5" ry="2.5" style="stroke:#181818;stroke-width:0.5;" width="145" x="374.5" y="156.22"/><ellipse cx="400.3" cy="172.22" fill="#ADD1B2" rx="11" ry="11" style="stroke:#181818;stroke-width:1.0;"/><path d="M403.2731,177.8631 Q402.6921,178.1619 402.0529,178.3113 Q401.4138,178.4607 400.7082,178.4607 Q398.2014,178.4607 396.8815,176.8089 Q395.5617,175.157 395.5617,172.0359 Q395.5617,168.9065 396.8815,167.2547 Q398.2014,165.6028 400.7082,165.6028 Q401.4138,165.6028 402.0612,165.7522 Q402.7087,165.9016 403.2731,166.2005 L403.2731,168.9231 Q402.6423,168.3421 402.0488,168.0723 Q401.4553,167.8025 400.8244,167.8025 Q399.4797,167.8025 398.7949,168.8692 Q398.1101,169.9358 398.1101,172.0359 Q398.1101,174.1277 398.7949,175.1944 Q399.4797,176.261 400.8244,176.261 Q401.4553,176.261 402.0488,175.9912 Q402.6423,175.7215 403.2731,175.1404 Z " fill="#000000"/><text fill="#000000" font-family="sans-serif" font-size="14" lengthAdjust="spacing" textLength="89" x="416.7" y="177.511">SpecialAgent</text><line style="stroke:#181818;stroke-width:0.5;" x1="375.5" x2="518.5" y1="188.22" y2="188.22"/><line style="stroke:#181818;stroke-width:0.5;" x1="375.5" x2="518.5" y1="196.22" y2="196.22"/><text fill="#000000" font-family="sans-serif" font-size="14" lengthAdjust="spacing" textLength="133" x="380.5" y="213.7552">#on_update() : void</text></g><!--class Agent--><g id="elem_Agent"><rect codeLine="27" fill="#F1F1F1" height="64.4883" id="Agent" rx="2.5" ry="2.5" style="stroke:#181818;stroke-width:0.5;" width="111" x="391.5" y="288.95"/><ellipse cx="423.6" cy="304.95" fill="#ADD1B2" rx="11" ry="11" style="stroke:#181818;stroke-width:1.0;"/><path d="M426.5731,310.5931 Q425.9921,310.8919 425.3529,311.0413 Q424.7138,311.1907 424.0082,311.1907 Q421.5014,311.1907 420.1815,309.5389 Q418.8617,307.887 418.8617,304.7659 Q418.8617,301.6365 420.1815,299.9847 Q421.5014,298.3328 424.0082,298.3328 Q424.7138,298.3328 425.3612,298.4822 Q426.0087,298.6316 426.5731,298.9305 L426.5731,301.6531 Q425.9423,301.0721 425.3488,300.8023 Q424.7553,300.5325 424.1244,300.5325 Q422.7797,300.5325 422.0949,301.5992 Q421.4101,302.6658 421.4101,304.7659 Q421.4101,306.8577 422.0949,307.9244 Q422.7797,308.991 424.1244,308.991 Q424.7553,308.991 425.3488,308.7212 Q425.9423,308.4515 426.5731,307.8704 Z " fill="#000000"/><text fill="#000000" font-family="sans-serif" font-size="14" lengthAdjust="spacing" textLength="41" x="441.4" y="310.241">Agent</text><line style="stroke:#181818;stroke-width:0.5;" x1="392.5" x2="501.5" y1="320.95" y2="320.95"/><line style="stroke:#181818;stroke-width:0.5;" x1="392.5" x2="501.5" y1="328.95" y2="328.95"/><text fill="#000000" font-family="sans-serif" font-size="14" lengthAdjust="spacing" textLength="99" x="397.5" y="346.4852">update() : void</text></g><!--link State to StateMachine--><g id="link_State_StateMachine"><path codeLine="31" d="M323.44,47.49 C334.82,47.49 322.21,47.49 333.59,47.49 " fill="none" id="State-StateMachine" style="stroke:#181818;stroke-width:1.0;"/><polygon fill="none" points="311.44,47.49,317.44,51.49,323.44,47.49,317.44,43.49,311.44,47.49" style="stroke:#181818;stroke-width:1.0;"/><polygon fill="#181818" points="345.59,47.49,339.59,43.49,333.59,47.49,339.59,51.49,345.59,47.49" style="stroke:#181818;stroke-width:1.0;"/></g><!--reverse link State to AttackState--><g id="link_State_AttackState"><path codeLine="32" d="M151.1257,101.5501 C133.9857,120.1601 125.82,129.02 108.69,147.63 " fill="none" id="State-backto-AttackState" style="stroke:#181818;stroke-width:1.0;"/><polygon fill="none" points="163.32,88.31,146.7124,97.4853,155.5391,105.6148,163.32,88.31" style="stroke:#181818;stroke-width:1.0;"/></g><!--reverse link State to ScanState--><g id="link_State_ScanState"><path codeLine="33" d="M215.2356,105.7028 C220.1956,124.3128 221.44,129.02 226.4,147.63 " fill="none" id="State-backto-ScanState" style="stroke:#181818;stroke-width:1.0;"/><polygon fill="none" points="210.6,88.31,209.438,107.248,221.0332,104.1576,210.6,88.31" style="stroke:#181818;stroke-width:1.0;"/></g><!--reverse link StateMachine to SpecialAgent--><g id="link_StateMachine_SpecialAgent"><path codeLine="34" d="M447,106.31 C447,127.81 447,135.97 447,156.02 " fill="none" id="StateMachine-backto-SpecialAgent" style="stroke:#181818;stroke-width:1.0;"/><polygon fill="none" points="447,88.31,441,106.31,453,106.31,447,88.31" style="stroke:#181818;stroke-width:1.0;"/></g><!--reverse link SpecialAgent to Agent--><g id="link_SpecialAgent_Agent"><path codeLine="35" d="M447,239.11 C447,259.66 447,268.34 447,288.84 " fill="none" id="SpecialAgent-backto-Agent" style="stroke:#181818;stroke-width:1.0;"/><polygon fill="none" points="447,221.11,441,239.11,453,239.11,447,221.11" style="stroke:#181818;stroke-width:1.0;"/></g><!--SRC=[ZP2n3i8W48PtdeB4fPgGE3V6fAE3Kn-WEIagQGkaW8FMTvTI6Y4oo4Jk_-w_krztN2WOOS2q1wqhOqP-iOQTg1GrVpAyHyWhk3PWs1dedGk6NmYxH-quCc4QFKkuN12lQ1QgHQ9jtUSXUOlUYMkmss0FDqCOKYOpFTBA1gZXKXI_Lcvte5ricA7dCdWmur1J47_qQuVbkXMZ7FhgvY9PBvAYiQgTSyZi6u4PACbxHtfsDKI6YEDJYLLaEWRXUq5QZhqE4o79icZPPEs85VG1]--></g></svg>